<mxfile host="app.diagrams.net" modified="2021-09-27T08:31:20.430Z" agent="5.0 (Macintosh; Intel Mac OS X 10_15_7) AppleWebKit/605.1.15 (KHTML, like Gecko) Version/15.0 Safari/605.1.15" etag="nBbdWm4DS3Gthg3se1S0" version="15.3.4" type="github">
  <diagram id="ZlBgvR0n9TsWPcYFYL-l" name="Page-1">
    <mxGraphModel dx="946" dy="541" grid="1" gridSize="10" guides="1" tooltips="1" connect="1" arrows="1" fold="1" page="1" pageScale="1" pageWidth="827" pageHeight="1169" math="0" shadow="0">
      <root>
        <mxCell id="0" />
        <mxCell id="1" parent="0" />
        <mxCell id="hsNHhUJXJL3XianTNw1o-1" value="&lt;font style=&quot;font-size: 14px&quot;&gt;Başla&lt;/font&gt;" style="ellipse;whiteSpace=wrap;html=1;hachureGap=4;pointerEvents=0;" vertex="1" parent="1">
          <mxGeometry x="354" y="20" width="120" height="80" as="geometry" />
        </mxCell>
        <mxCell id="hsNHhUJXJL3XianTNw1o-2" value="" style="endArrow=classic;html=1;startSize=14;endSize=14;sourcePerimeterSpacing=8;targetPerimeterSpacing=8;" edge="1" parent="1">
          <mxGeometry width="50" height="50" relative="1" as="geometry">
            <mxPoint x="414" y="100" as="sourcePoint" />
            <mxPoint x="414" y="170" as="targetPoint" />
          </mxGeometry>
        </mxCell>
        <mxCell id="hsNHhUJXJL3XianTNw1o-3" value="&lt;font style=&quot;font-size: 14px&quot;&gt;A,B,C değişkenlerini tanımla&lt;/font&gt;" style="shape=parallelogram;perimeter=parallelogramPerimeter;whiteSpace=wrap;html=1;fixedSize=1;hachureGap=4;pointerEvents=0;" vertex="1" parent="1">
          <mxGeometry x="259" y="170" width="310" height="60" as="geometry" />
        </mxCell>
        <mxCell id="hsNHhUJXJL3XianTNw1o-4" value="" style="endArrow=classic;html=1;startSize=14;endSize=14;sourcePerimeterSpacing=8;targetPerimeterSpacing=8;" edge="1" parent="1">
          <mxGeometry width="50" height="50" relative="1" as="geometry">
            <mxPoint x="413" y="230" as="sourcePoint" />
            <mxPoint x="413" y="300" as="targetPoint" />
          </mxGeometry>
        </mxCell>
        <mxCell id="hsNHhUJXJL3XianTNw1o-5" value="&lt;font style=&quot;font-size: 14px&quot;&gt;A,B,C değişkenlerini oku&lt;/font&gt;" style="shape=parallelogram;perimeter=parallelogramPerimeter;whiteSpace=wrap;html=1;fixedSize=1;hachureGap=4;pointerEvents=0;" vertex="1" parent="1">
          <mxGeometry x="259" y="300" width="310" height="60" as="geometry" />
        </mxCell>
        <mxCell id="hsNHhUJXJL3XianTNw1o-6" value="" style="endArrow=classic;html=1;startSize=14;endSize=14;sourcePerimeterSpacing=8;targetPerimeterSpacing=8;" edge="1" parent="1">
          <mxGeometry width="50" height="50" relative="1" as="geometry">
            <mxPoint x="413" y="360" as="sourcePoint" />
            <mxPoint x="413" y="430" as="targetPoint" />
          </mxGeometry>
        </mxCell>
        <mxCell id="hsNHhUJXJL3XianTNw1o-7" value="&lt;font style=&quot;font-size: 14px&quot;&gt;A&amp;gt;B mi?&lt;/font&gt;" style="rhombus;whiteSpace=wrap;html=1;hachureGap=4;pointerEvents=0;" vertex="1" parent="1">
          <mxGeometry x="353" y="430" width="121" height="120" as="geometry" />
        </mxCell>
        <mxCell id="hsNHhUJXJL3XianTNw1o-8" value="" style="endArrow=classic;html=1;startSize=14;endSize=14;sourcePerimeterSpacing=8;targetPerimeterSpacing=8;" edge="1" parent="1">
          <mxGeometry width="50" height="50" relative="1" as="geometry">
            <mxPoint x="350" y="490" as="sourcePoint" />
            <mxPoint x="240" y="600" as="targetPoint" />
            <Array as="points">
              <mxPoint x="240" y="490" />
            </Array>
          </mxGeometry>
        </mxCell>
        <mxCell id="hsNHhUJXJL3XianTNw1o-9" value="Evet" style="text;strokeColor=none;fillColor=none;align=left;verticalAlign=middle;spacingLeft=4;spacingRight=4;overflow=hidden;points=[[0,0.5],[1,0.5]];portConstraint=eastwest;rotatable=0;hachureGap=4;pointerEvents=0;" vertex="1" parent="1">
          <mxGeometry x="500" y="460" width="80" height="30" as="geometry" />
        </mxCell>
        <mxCell id="hsNHhUJXJL3XianTNw1o-10" value="" style="endArrow=classic;html=1;startSize=14;endSize=14;sourcePerimeterSpacing=8;targetPerimeterSpacing=8;" edge="1" parent="1">
          <mxGeometry width="50" height="50" relative="1" as="geometry">
            <mxPoint x="480" y="490" as="sourcePoint" />
            <mxPoint x="600" y="600" as="targetPoint" />
            <Array as="points">
              <mxPoint x="600" y="490" />
            </Array>
          </mxGeometry>
        </mxCell>
        <mxCell id="hsNHhUJXJL3XianTNw1o-11" value="Hayır&#xa;" style="text;strokeColor=none;fillColor=none;align=left;verticalAlign=middle;spacingLeft=4;spacingRight=4;overflow=hidden;points=[[0,0.5],[1,0.5]];portConstraint=eastwest;rotatable=0;hachureGap=4;pointerEvents=0;" vertex="1" parent="1">
          <mxGeometry x="280" y="470" width="80" height="30" as="geometry" />
        </mxCell>
        <mxCell id="hsNHhUJXJL3XianTNw1o-12" value="&lt;font style=&quot;font-size: 14px&quot;&gt;B&amp;gt;C mi?&lt;/font&gt;" style="rhombus;whiteSpace=wrap;html=1;hachureGap=4;pointerEvents=0;" vertex="1" parent="1">
          <mxGeometry x="180" y="600" width="121" height="120" as="geometry" />
        </mxCell>
        <mxCell id="hsNHhUJXJL3XianTNw1o-13" value="&lt;font style=&quot;font-size: 14px&quot;&gt;A&amp;gt;C mi?&lt;/font&gt;" style="rhombus;whiteSpace=wrap;html=1;hachureGap=4;pointerEvents=0;" vertex="1" parent="1">
          <mxGeometry x="540" y="600" width="121" height="120" as="geometry" />
        </mxCell>
        <mxCell id="hsNHhUJXJL3XianTNw1o-14" value="" style="endArrow=classic;html=1;startSize=14;endSize=14;sourcePerimeterSpacing=8;targetPerimeterSpacing=8;" edge="1" parent="1">
          <mxGeometry width="50" height="50" relative="1" as="geometry">
            <mxPoint x="180" y="660" as="sourcePoint" />
            <mxPoint x="70" y="770" as="targetPoint" />
            <Array as="points">
              <mxPoint x="70" y="660" />
            </Array>
          </mxGeometry>
        </mxCell>
        <mxCell id="hsNHhUJXJL3XianTNw1o-15" value="" style="endArrow=none;html=1;startSize=14;endSize=14;sourcePerimeterSpacing=8;targetPerimeterSpacing=8;exitX=1;exitY=0.5;exitDx=0;exitDy=0;entryX=0;entryY=0.5;entryDx=0;entryDy=0;" edge="1" parent="1" source="hsNHhUJXJL3XianTNw1o-12" target="hsNHhUJXJL3XianTNw1o-13">
          <mxGeometry width="50" height="50" relative="1" as="geometry">
            <mxPoint x="380" y="650" as="sourcePoint" />
            <mxPoint x="430" y="600" as="targetPoint" />
          </mxGeometry>
        </mxCell>
        <mxCell id="hsNHhUJXJL3XianTNw1o-16" value="" style="endArrow=classic;html=1;startSize=14;endSize=14;sourcePerimeterSpacing=8;targetPerimeterSpacing=8;" edge="1" parent="1">
          <mxGeometry width="50" height="50" relative="1" as="geometry">
            <mxPoint x="410" y="660" as="sourcePoint" />
            <mxPoint x="410" y="770" as="targetPoint" />
          </mxGeometry>
        </mxCell>
        <mxCell id="hsNHhUJXJL3XianTNw1o-17" value="" style="endArrow=classic;html=1;startSize=14;endSize=14;sourcePerimeterSpacing=8;targetPerimeterSpacing=8;" edge="1" parent="1">
          <mxGeometry width="50" height="50" relative="1" as="geometry">
            <mxPoint x="661" y="660" as="sourcePoint" />
            <mxPoint x="781" y="770" as="targetPoint" />
            <Array as="points">
              <mxPoint x="781" y="660" />
            </Array>
          </mxGeometry>
        </mxCell>
        <mxCell id="hsNHhUJXJL3XianTNw1o-18" value="&lt;font style=&quot;font-size: 14px&quot;&gt;B&#39;yi yaz&lt;/font&gt;" style="shape=parallelogram;perimeter=parallelogramPerimeter;whiteSpace=wrap;html=1;fixedSize=1;hachureGap=4;pointerEvents=0;" vertex="1" parent="1">
          <mxGeometry x="20" y="770" width="100" height="40" as="geometry" />
        </mxCell>
        <mxCell id="hsNHhUJXJL3XianTNw1o-19" value="&lt;font style=&quot;font-size: 14px&quot;&gt;C&#39;yi yaz&lt;/font&gt;" style="shape=parallelogram;perimeter=parallelogramPerimeter;whiteSpace=wrap;html=1;fixedSize=1;hachureGap=4;pointerEvents=0;" vertex="1" parent="1">
          <mxGeometry x="364" y="770" width="100" height="40" as="geometry" />
        </mxCell>
        <mxCell id="hsNHhUJXJL3XianTNw1o-20" value="&lt;font style=&quot;font-size: 14px&quot;&gt;A&#39;yı yaz&lt;/font&gt;" style="shape=parallelogram;perimeter=parallelogramPerimeter;whiteSpace=wrap;html=1;fixedSize=1;hachureGap=4;pointerEvents=0;" vertex="1" parent="1">
          <mxGeometry x="720" y="770" width="100" height="40" as="geometry" />
        </mxCell>
        <mxCell id="hsNHhUJXJL3XianTNw1o-21" value="" style="endArrow=none;html=1;startSize=14;endSize=14;sourcePerimeterSpacing=8;targetPerimeterSpacing=8;exitX=0.41;exitY=1.075;exitDx=0;exitDy=0;exitPerimeter=0;" edge="1" parent="1" source="hsNHhUJXJL3XianTNw1o-18">
          <mxGeometry width="50" height="50" relative="1" as="geometry">
            <mxPoint x="120" y="820" as="sourcePoint" />
            <mxPoint x="410" y="880" as="targetPoint" />
            <Array as="points">
              <mxPoint x="61" y="880" />
            </Array>
          </mxGeometry>
        </mxCell>
        <mxCell id="hsNHhUJXJL3XianTNw1o-22" value="" style="endArrow=none;html=1;startSize=14;endSize=14;sourcePerimeterSpacing=8;targetPerimeterSpacing=8;" edge="1" parent="1">
          <mxGeometry width="50" height="50" relative="1" as="geometry">
            <mxPoint x="410" y="880" as="sourcePoint" />
            <mxPoint x="410" y="810" as="targetPoint" />
          </mxGeometry>
        </mxCell>
        <mxCell id="hsNHhUJXJL3XianTNw1o-23" value="" style="endArrow=none;html=1;startSize=14;endSize=14;sourcePerimeterSpacing=8;targetPerimeterSpacing=8;entryX=0.42;entryY=1.05;entryDx=0;entryDy=0;entryPerimeter=0;" edge="1" parent="1" target="hsNHhUJXJL3XianTNw1o-20">
          <mxGeometry width="50" height="50" relative="1" as="geometry">
            <mxPoint x="410" y="880" as="sourcePoint" />
            <mxPoint x="690" y="830" as="targetPoint" />
            <Array as="points">
              <mxPoint x="762" y="880" />
            </Array>
          </mxGeometry>
        </mxCell>
        <mxCell id="hsNHhUJXJL3XianTNw1o-24" value="" style="endArrow=classic;html=1;startSize=14;endSize=14;sourcePerimeterSpacing=8;targetPerimeterSpacing=8;" edge="1" parent="1">
          <mxGeometry width="50" height="50" relative="1" as="geometry">
            <mxPoint x="410" y="880" as="sourcePoint" />
            <mxPoint x="410" y="940" as="targetPoint" />
          </mxGeometry>
        </mxCell>
        <mxCell id="hsNHhUJXJL3XianTNw1o-25" value="&lt;font style=&quot;font-size: 14px&quot;&gt;Bitir&lt;/font&gt;" style="ellipse;whiteSpace=wrap;html=1;hachureGap=4;pointerEvents=0;" vertex="1" parent="1">
          <mxGeometry x="353" y="940" width="120" height="80" as="geometry" />
        </mxCell>
      </root>
    </mxGraphModel>
  </diagram>
</mxfile>
